<svg width="31" height="31" viewBox="0 0 31 31" fill="none" xmlns="http://www.w3.org/2000/svg">
<path d="M29.4377 24.1384L23.0015 18.2864C22.6972 18.0099 22.2975 17.8624 21.8865 17.8751C21.4756 17.8878 21.0857 18.0597 20.7991 18.3545L17.0102 22.2511C16.0982 22.0769 14.2647 21.5053 12.3773 19.6227C10.49 17.7338 9.91841 15.8956 9.74899 14.9899L13.6424 11.1994C13.9376 10.913 14.1097 10.523 14.1224 10.112C14.1351 9.70091 13.9874 9.30103 13.7105 8.99697L7.86007 2.5623C7.58306 2.25728 7.19805 2.07227 6.78681 2.04655C6.37558 2.02083 5.97052 2.15643 5.65766 2.42455L2.22182 5.37114C1.94808 5.64587 1.78469 6.01152 1.76266 6.39872C1.73891 6.79455 1.28607 16.1711 8.55674 23.4449C14.8996 29.7861 22.8447 30.2501 25.0329 30.2501C25.3527 30.2501 25.5491 30.2406 25.6013 30.2374C25.9885 30.2157 26.3539 30.0516 26.6273 29.7766L29.5723 26.3392C29.8415 26.0274 29.9781 25.6226 29.953 25.2114C29.9278 24.8002 29.7429 24.4151 29.4377 24.1384Z" fill="#FF5F5F"/>
</svg>
