<svg width="36" height="21" viewBox="0 0 36 21" fill="none" xmlns="http://www.w3.org/2000/svg">
<path fill-rule="evenodd" clip-rule="evenodd" d="M35.1743 1.422C35.4233 0.603 35.1743 0 33.9818 0H30.0444C29.0424 0 28.5804 0.5205 28.3299 1.095C28.3299 1.095 26.3274 5.889 23.491 9.003C22.573 9.906 22.156 10.1925 21.655 10.1925C21.4046 10.1925 21.0281 9.906 21.0281 9.0855V1.422C21.0281 0.438 20.7521 0 19.9181 0H13.7262C13.1007 0 12.7242 0.456 12.7242 0.8895C12.7242 1.821 14.1432 2.037 14.2887 4.659V10.356C14.2887 11.6055 14.0592 11.832 13.5582 11.832C12.2232 11.832 8.97581 7.0155 7.04835 1.5045C6.67486 0.432 6.29687 0 5.29039 0H1.34997C0.224995 0 0 0.5205 0 1.095C0 2.118 1.33497 7.2 6.21737 13.9215C9.4723 18.5115 14.0547 21 18.2291 21C20.7326 21 21.0416 20.448 21.0416 19.4955V16.026C21.0416 14.9205 21.2786 14.7 22.072 14.7C22.657 14.7 23.6575 14.988 25.9945 17.2005C28.6644 19.824 29.1039 21 30.6069 21H34.5443C35.6693 21 36.2332 20.448 35.9092 19.356C35.5523 18.27 34.2773 16.6935 32.5868 14.823C31.6688 13.758 30.2919 12.6105 29.8734 12.036C29.2899 11.2995 29.4564 10.971 29.8734 10.3155C29.8734 10.3155 34.6733 3.6765 35.1728 1.422H35.1743Z" fill="currentColor"/>
</svg>
