<svg width="32" height="33" viewBox="0 0 32 33" fill="none" xmlns="http://www.w3.org/2000/svg">
<path d="M2.67198 29.8333L4.47464 23.2093C3.28683 21.1731 2.66277 18.8573 2.66664 16.5C2.66664 9.136 8.63598 3.16666 16 3.16666C23.364 3.16666 29.3333 9.136 29.3333 16.5C29.3333 23.864 23.364 29.8333 16 29.8333C13.6437 29.8371 11.3289 29.2136 9.29331 28.0267L2.67198 29.8333ZM11.188 10.244C11.0158 10.2547 10.8475 10.3 10.6933 10.3773C10.5487 10.4592 10.4166 10.5616 10.3013 10.6813C10.1413 10.832 10.0506 10.9627 9.95331 11.0893C9.46053 11.7307 9.19546 12.5179 9.19998 13.3267C9.20264 13.98 9.37331 14.616 9.63998 15.2107C10.1853 16.4133 11.0826 17.6867 12.268 18.8667C12.5533 19.1507 12.832 19.436 13.132 19.7013C14.6032 20.9966 16.3563 21.9307 18.252 22.4293L19.0106 22.5453C19.2573 22.5587 19.504 22.54 19.752 22.528C20.1403 22.508 20.5195 22.4028 20.8626 22.22C21.0373 22.1301 21.2077 22.0322 21.3733 21.9267C21.3733 21.9267 21.4306 21.8893 21.54 21.8067C21.72 21.6733 21.8306 21.5787 21.98 21.4227C22.0906 21.308 22.1866 21.1733 22.26 21.02C22.364 20.8027 22.468 20.388 22.5106 20.0427C22.5426 19.7787 22.5333 19.6347 22.5293 19.5453C22.524 19.4027 22.4053 19.2547 22.276 19.192L21.5 18.844C21.5 18.844 20.34 18.3387 19.632 18.016C19.5573 17.9835 19.4773 17.9649 19.396 17.9613C19.3048 17.952 19.2126 17.9622 19.1256 17.9914C19.0387 18.0206 18.959 18.0681 18.892 18.1307V18.128C18.8853 18.128 18.796 18.204 17.832 19.372C17.7766 19.4463 17.7004 19.5025 17.613 19.5334C17.5257 19.5643 17.4311 19.5684 17.3413 19.5453C17.2544 19.5221 17.1693 19.4927 17.0866 19.4573C16.9213 19.388 16.864 19.3613 16.7506 19.312L16.744 19.3093C15.9812 18.9763 15.2749 18.5265 14.6506 17.976C14.4826 17.8293 14.3266 17.6693 14.1666 17.5147C13.6421 17.0123 13.1849 16.444 12.8066 15.824L12.728 15.6973C12.6715 15.6122 12.6258 15.5204 12.592 15.424C12.5413 15.228 12.6733 15.0707 12.6733 15.0707C12.6733 15.0707 12.9973 14.716 13.148 14.524C13.2734 14.3644 13.3905 14.1984 13.4986 14.0267C13.656 13.7733 13.7053 13.5133 13.6226 13.312C13.2493 12.4 12.8626 11.492 12.4653 10.5907C12.3866 10.412 12.1533 10.284 11.9413 10.2587C11.8693 10.2507 11.7973 10.2427 11.7253 10.2373C11.5463 10.2284 11.3668 10.2302 11.188 10.2427V10.244Z" fill="currentColor"/>
</svg>
